<svg id="Capa_1" data-name="Capa 1" xmlns="http://www.w3.org/2000/svg" viewBox="0 0 223.4 108.1"><defs><style>.cls-1{fill:#b1cfde;}.cls-2{fill:#e72d51;}.cls-3{fill:#cfeaf7;}.cls-4,.cls-5{fill:#fff;}.cls-4{opacity:0.4;}.cls-6{fill:#4891b5;}.cls-7{fill:#fecc56;}.cls-8{fill:#96bbcc;opacity:0.6;}.cls-9{fill:#fed063;}</style></defs><title>ufo</title><polygon class="cls-1" points="160.71 21.72 159.9 20.91 159.09 20.1 141.64 35.72 143.31 37.39 144.97 39.05 160.71 21.72"/><path class="cls-2" d="M163.61,22.11a3.5,3.5,0,1,1,.06-5A3.54,3.54,0,0,1,163.61,22.11Z" transform="translate(0 0.04)"/><polygon class="cls-1" points="62.69 21.72 63.5 20.91 64.31 20.1 81.76 35.72 80.09 37.39 78.42 39.05 62.69 21.72"/><path class="cls-2" d="M59.78,22.11a3.5,3.5,0,1,0-.06-5A3.55,3.55,0,0,0,59.78,22.11Z" transform="translate(0 0.04)"/><path class="cls-3" d="M139.88,28.15c0,15.57-12.61,29-28.18,29s-28.19-13.39-28.19-29a28.19,28.19,0,1,1,56.37,0Z" transform="translate(0 0.04)"/><path class="cls-4" d="M86.06,16.45a28.21,28.21,0,0,0,5.48.54A28.18,28.18,0,0,0,117.18.5a28.16,28.16,0,0,0-31.12,16Z" transform="translate(0 0.04)"/><path class="cls-5" d="M108.35,12.9a5.63,5.63,0,1,1-5.63-5.63A5.63,5.63,0,0,1,108.35,12.9Z" transform="translate(0 0.04)"/><path class="cls-2" d="M140.81,24H82.59a4.67,4.67,0,0,0-4.66,4.67v8.74h67.54V28.71A4.67,4.67,0,0,0,140.81,24Z" transform="translate(0 0.04)"/><path class="cls-6" d="M145.43,29.68H78a5.41,5.41,0,0,0-5.4,5.41V46h78.26V35.09A5.41,5.41,0,0,0,145.43,29.68Z" transform="translate(0 0.04)"/><ellipse class="cls-7" cx="111.7" cy="80.73" rx="40.35" ry="27.37"/><path class="cls-6" d="M78.11,98.29h67.17a5.38,5.38,0,0,0,5.38-5.38V82.82H72.73V92.91A5.38,5.38,0,0,0,78.11,98.29Z" transform="translate(0 0.04)"/><path class="cls-1" d="M111.7,90.58h0c64.58,0,103.47-26.18,103.47-26.18H8.23S47.12,90.58,111.7,90.58Z" transform="translate(0 0.04)"/><path class="cls-8" d="M111.7,90.58h0c44,0,70.5-26.18,70.5-26.18H41.2S67.7,90.58,111.7,90.58Z" transform="translate(0 0.04)"/><path class="cls-1" d="M111.7,90.58h0c17.15,0,27.48-26.18,27.48-26.18h-55S94.55,90.58,111.7,90.58Z" transform="translate(0 0.04)"/><path class="cls-1" d="M139,35.13H84.43c-67,0-80,26.95-80,26.95H219S205.94,35.13,139,35.13Z" transform="translate(0 0.04)"/><path class="cls-8" d="M129.91,35.13H93.49C48.75,35.13,40,62.08,40,62.08H183.37S174.64,35.13,129.91,35.13Z" transform="translate(0 0.04)"/><path class="cls-1" d="M117.72,36h-12C90.9,36,88,62.93,88,62.93h47.36S132.5,36,117.72,36Z" transform="translate(0 0.04)"/><path class="cls-6" d="M218.48,58.12A5.83,5.83,0,0,1,212.65,64H10.75a5.83,5.83,0,0,1-5.83-5.83h0a5.83,5.83,0,0,1,5.83-5.83h201.9a5.83,5.83,0,0,1,5.83,5.83Z" transform="translate(0 0.04)"/><path class="cls-6" d="M218.48,68.36a5.83,5.83,0,0,1-5.83,5.83H10.75a5.83,5.83,0,0,1-5.83-5.83h0a5.83,5.83,0,0,1,5.83-5.83h201.9a5.83,5.83,0,0,1,5.83,5.83Z" transform="translate(0 0.04)"/><path class="cls-2" d="M223.4,63.24a6.1,6.1,0,0,1-6.1,6.1H6.1A6.1,6.1,0,0,1,0,63.24H0a6.1,6.1,0,0,1,6.1-6.1H217.3a6.1,6.1,0,0,1,6.1,6.1Z" transform="translate(0 0.04)"/><path class="cls-9" d="M11.07,63.24A3.3,3.3,0,1,1,7.77,60,3.29,3.29,0,0,1,11.07,63.24Z" transform="translate(0 0.04)"/><path class="cls-5" d="M8.61,62.5A1.49,1.49,0,1,1,7.12,61,1.49,1.49,0,0,1,8.61,62.5Z" transform="translate(0 0.04)"/><path class="cls-9" d="M27.07,63.24A3.3,3.3,0,1,1,23.78,60,3.29,3.29,0,0,1,27.07,63.24Z" transform="translate(0 0.04)"/><path class="cls-5" d="M24.62,62.5A1.49,1.49,0,1,1,23.13,61,1.49,1.49,0,0,1,24.62,62.5Z" transform="translate(0 0.04)"/><path class="cls-9" d="M43.08,63.24A3.3,3.3,0,1,1,39.78,60,3.29,3.29,0,0,1,43.08,63.24Z" transform="translate(0 0.04)"/><path class="cls-5" d="M40.62,62.5A1.49,1.49,0,1,1,39.13,61,1.49,1.49,0,0,1,40.62,62.5Z" transform="translate(0 0.04)"/><path class="cls-9" d="M59.08,63.24A3.29,3.29,0,1,1,55.79,60,3.29,3.29,0,0,1,59.08,63.24Z" transform="translate(0 0.04)"/><path class="cls-5" d="M56.63,62.5A1.49,1.49,0,1,1,55.14,61,1.49,1.49,0,0,1,56.63,62.5Z" transform="translate(0 0.04)"/><path class="cls-9" d="M75.09,63.24A3.3,3.3,0,1,1,71.8,60,3.29,3.29,0,0,1,75.09,63.24Z" transform="translate(0 0.04)"/><path class="cls-5" d="M72.63,62.5A1.49,1.49,0,1,1,71.15,61,1.49,1.49,0,0,1,72.63,62.5Z" transform="translate(0 0.04)"/><path class="cls-9" d="M91.1,63.24A3.3,3.3,0,1,1,87.8,60,3.29,3.29,0,0,1,91.1,63.24Z" transform="translate(0 0.04)"/><path class="cls-5" d="M88.64,62.5A1.49,1.49,0,1,1,87.15,61,1.49,1.49,0,0,1,88.64,62.5Z" transform="translate(0 0.04)"/><path class="cls-9" d="M107.1,63.24A3.3,3.3,0,1,1,103.81,60,3.29,3.29,0,0,1,107.1,63.24Z" transform="translate(0 0.04)"/><path class="cls-5" d="M104.65,62.5A1.49,1.49,0,1,1,103.16,61,1.49,1.49,0,0,1,104.65,62.5Z" transform="translate(0 0.04)"/><path class="cls-9" d="M123.11,63.24a3.3,3.3,0,1,1-3.3-3.29A3.29,3.29,0,0,1,123.11,63.24Z" transform="translate(0 0.04)"/><path class="cls-5" d="M120.65,62.5A1.49,1.49,0,1,1,119.16,61,1.49,1.49,0,0,1,120.65,62.5Z" transform="translate(0 0.04)"/><path class="cls-9" d="M139.12,63.24a3.3,3.3,0,1,1-3.3-3.29A3.29,3.29,0,0,1,139.12,63.24Z" transform="translate(0 0.04)"/><path class="cls-5" d="M136.66,62.5A1.49,1.49,0,1,1,135.17,61,1.49,1.49,0,0,1,136.66,62.5Z" transform="translate(0 0.04)"/><path class="cls-9" d="M155.12,63.24A3.3,3.3,0,1,1,151.83,60,3.29,3.29,0,0,1,155.12,63.24Z" transform="translate(0 0.04)"/><path class="cls-5" d="M152.66,62.5A1.49,1.49,0,1,1,151.18,61,1.49,1.49,0,0,1,152.66,62.5Z" transform="translate(0 0.04)"/><path class="cls-9" d="M171.13,63.24a3.3,3.3,0,1,1-3.3-3.29A3.29,3.29,0,0,1,171.13,63.24Z" transform="translate(0 0.04)"/><path class="cls-5" d="M168.67,62.5A1.49,1.49,0,1,1,167.18,61,1.49,1.49,0,0,1,168.67,62.5Z" transform="translate(0 0.04)"/><path class="cls-9" d="M187.13,63.24A3.3,3.3,0,1,1,183.84,60,3.29,3.29,0,0,1,187.13,63.24Z" transform="translate(0 0.04)"/><path class="cls-5" d="M184.68,62.5A1.49,1.49,0,1,1,183.19,61,1.49,1.49,0,0,1,184.68,62.5Z" transform="translate(0 0.04)"/><path class="cls-9" d="M203.14,63.24A3.3,3.3,0,1,1,199.85,60,3.29,3.29,0,0,1,203.14,63.24Z" transform="translate(0 0.04)"/><path class="cls-5" d="M200.68,62.5A1.49,1.49,0,1,1,199.19,61,1.49,1.49,0,0,1,200.68,62.5Z" transform="translate(0 0.04)"/><path class="cls-9" d="M219.15,63.24a3.3,3.3,0,1,1-3.3-3.29A3.29,3.29,0,0,1,219.15,63.24Z" transform="translate(0 0.04)"/><path class="cls-5" d="M216.69,62.5A1.49,1.49,0,1,1,215.2,61,1.49,1.49,0,0,1,216.69,62.5Z" transform="translate(0 0.04)"/></svg>